<?xml version="1.0" ?><!DOCTYPE svg  PUBLIC '-//W3C//DTD SVG 1.1//EN'  'http://www.w3.org/Graphics/SVG/1.1/DTD/svg11.dtd'><!-- Uploaded to: SVG Repo, www.svgrepo.com, Generator: SVG Repo Mixer Tools -->
<svg width="800px" height="800px" viewBox="0 0 32 32" style="fill-rule:evenodd;clip-rule:evenodd;stroke-linejoin:round;stroke-miterlimit:2;" version="1.1" xml:space="preserve" xmlns="http://www.w3.org/2000/svg" xmlns:serif="http://www.serif.com/" xmlns:xlink="http://www.w3.org/1999/xlink"><path d="M16,1.5c-8.003,0 -14.5,6.497 -14.5,14.5c0,8.003 6.497,14.5 14.5,14.5c8.003,0 14.5,-6.497 14.5,-14.5c0,-8.003 -6.497,-14.5 -14.5,-14.5Zm0,1c7.451,0 13.5,6.049 13.5,13.5c0,7.451 -6.049,13.5 -13.5,13.5c-7.451,0 -13.5,-6.049 -13.5,-13.5c0,-7.451 6.049,-13.5 13.5,-13.5Z" style="fill:#32b2ff;"/><path d="M16.426,5.738c-0.091,-0.148 -0.252,-0.238 -0.426,-0.238c-0.174,-0 -0.335,0.09 -0.426,0.238c-0,0 -2.963,4.824 -4.741,9.165c-0.785,1.917 -1.333,3.746 -1.333,5.05c-0,3.587 2.913,6.5 6.5,6.5c3.587,-0 6.5,-2.913 6.5,-6.5c-0,-1.304 -0.548,-3.133 -1.333,-5.05c-1.778,-4.341 -4.741,-9.165 -4.741,-9.165Zm-0.426,1.236c-0.874,1.482 -2.9,5.034 -4.241,8.308c-0.727,1.776 -1.259,3.463 -1.259,4.671c-0,3.035 2.464,5.5 5.5,5.5c3.036,-0 5.5,-2.465 5.5,-5.5c-0,-1.208 -0.532,-2.895 -1.259,-4.671c-1.341,-3.274 -3.367,-6.826 -4.241,-8.308Z" style="fill:#32b2ff;"/><path d="M25.648,5.645l-20,19.794c-0.196,0.194 -0.197,0.511 -0.003,0.707c0.194,0.196 0.511,0.198 0.707,0.003l20,-19.794c0.196,-0.194 0.197,-0.511 0.003,-0.707c-0.194,-0.196 -0.511,-0.197 -0.707,-0.003Z" style="fill:#32b2ff;"/><path d="M15.922,24.494c-0,-0 1.069,0.185 2.291,-0.539c0.764,-0.452 1.604,-1.267 2.246,-2.757c0.109,-0.253 -0.008,-0.548 -0.261,-0.657c-0.253,-0.109 -0.548,0.008 -0.657,0.261c-1.288,2.988 -3.463,2.704 -3.463,2.704c-0.272,-0.043 -0.529,0.143 -0.572,0.416c-0.043,0.272 0.143,0.529 0.416,0.572Z" style="fill:#32b2ff;"/></svg>