<?xml version="1.0" ?><!DOCTYPE svg  PUBLIC '-//W3C//DTD SVG 1.1//EN'  'http://www.w3.org/Graphics/SVG/1.1/DTD/svg11.dtd'><!-- Uploaded to: SVG Repo, www.svgrepo.com, Generator: SVG Repo Mixer Tools -->
<svg width="800px" height="800px" viewBox="0 0 32 32" style="fill-rule:evenodd;clip-rule:evenodd;stroke-linejoin:round;stroke-miterlimit:2;" version="1.1" xml:space="preserve" xmlns="http://www.w3.org/2000/svg" xmlns:serif="http://www.serif.com/" xmlns:xlink="http://www.w3.org/1999/xlink"><path d="M16.434,1.752c-0.089,-0.156 -0.255,-0.252 -0.434,-0.252c-0.179,-0 -0.345,0.096 -0.434,0.252c-0,-0 -3.941,6.897 -6.305,13.104c-1.034,2.713 -1.761,5.299 -1.761,7.144c-0,4.691 3.809,8.5 8.5,8.5c4.691,0 8.5,-3.809 8.5,-8.5c0,-1.845 -0.727,-4.431 -1.761,-7.144c-2.364,-6.207 -6.305,-13.104 -6.305,-13.104Zm-0.434,1.273c-1.081,1.958 -3.939,7.29 -5.805,12.187c-0.982,2.579 -1.695,5.033 -1.695,6.788c0,4.139 3.361,7.5 7.5,7.5c4.139,0 7.5,-3.361 7.5,-7.5c0,-1.755 -0.713,-4.209 -1.695,-6.788c-1.866,-4.897 -4.724,-10.229 -5.805,-12.187Z" style="fill:#32b2ff;"/><path d="M15.5,2l-0,28c-0,0.276 0.224,0.5 0.5,0.5c0.276,0 0.5,-0.224 0.5,-0.5l-0,-28c0,-0.276 -0.224,-0.5 -0.5,-0.5c-0.276,-0 -0.5,0.224 -0.5,0.5Z" style="fill:#32b2ff;"/><path d="M16.354,18.24l-3,-3c-0.196,-0.195 -0.512,-0.195 -0.708,-0c-0.195,0.195 -0.195,0.512 0,0.707l3,3c0.196,0.195 0.512,0.195 0.708,0c0.195,-0.195 0.195,-0.512 -0,-0.707Z" style="fill:#32b2ff;"/><path d="M16.293,24.595l-4,-2.897c-0.223,-0.162 -0.536,-0.112 -0.698,0.112c-0.162,0.223 -0.112,0.536 0.112,0.698l4,2.897c0.223,0.162 0.536,0.112 0.698,-0.112c0.162,-0.223 0.112,-0.536 -0.112,-0.698Z" style="fill:#32b2ff;"/><path d="M21.502,22.958c-0,-0 -0.21,2.086 -2.759,3.613c-0.237,0.142 -0.314,0.449 -0.172,0.686c0.142,0.237 0.449,0.314 0.686,0.172c3.058,-1.832 3.241,-4.387 3.241,-4.387c0.024,-0.275 -0.181,-0.517 -0.456,-0.54c-0.275,-0.024 -0.517,0.181 -0.54,0.456Z" style="fill:#32b2ff;"/></svg>